# xmcd
#
# Track frame offsets:
#	150
#	21427
#	37277
#	58947
#	76022
#	90560
#	105515
#	125650
#	148077
#	162300
#	176487
#
# Disc length: 2580 seconds
# Revision: 0
# Processed by: cddbd v1.5.2PL0 Copyright (c) Steve Scherf et al.
# Submitted via: dBpowerAMP V12.0
#
DISCID=950a120b
DTITLE=Loretta Hagen - Don't Stop Me Now
DYEAR=1995
DGENRE=Folk
TTITLE0=Don't Stop Me Now
TTITLE1=Just Another Girl
TTITLE2=This Is My Time
TTITLE3=Everything Disappears Here
TTITLE4=Your Guess Is Good As Mine
TTITLE5=Skippin' School
TTITLE6=Where There Is Life
TTITLE7=No Until The Next Time
TTITLE8=Rock Me In Your Arms
TTITLE9=The Rockin' Rockin' Horse Saloon
TTITLE10=We Don't Have To Touch Fire
EXTD=
EXTT0=
EXTT1=
EXTT2=
EXTT3=
EXTT4=
EXTT5=
EXTT6=
EXTT7=
EXTT8=
EXTT9=
EXTT10=
PLAYORDER=
